<?xml version="1.0" standalone="no"?>
<!DOCTYPE svg PUBLIC "-//W3C//DTD SVG 20010904//EN"
 "http://www.w3.org/TR/2001/REC-SVG-20010904/DTD/svg10.dtd">
<svg version="1.0" xmlns="http://www.w3.org/2000/svg"
 width="1563.000000pt" height="1563.000000pt" viewBox="0 0 1563.000000 1563.000000"
 preserveAspectRatio="xMidYMid meet">

<g transform="translate(0.000000,1563.000000) scale(0.100000,-0.100000)"
fill="#000000" stroke="none">
<path d="M8394 10523 l-71 -36 -23 -74 c-13 -40 -28 -73 -33 -73 -5 0 -54 16
-109 36 -55 19 -101 34 -103 32 -2 -2 -1 -15 2 -29 4 -22 17 -30 99 -58 52
-18 94 -37 94 -41 0 -4 -13 -24 -30 -45 -16 -21 -30 -41 -30 -46 0 -14 -72
-29 -136 -29 -35 0 -86 9 -119 20 -33 11 -62 19 -65 18 -3 -2 25 -32 62 -67
l68 -64 83 17 c45 9 87 16 93 16 6 0 16 -25 23 -56 7 -31 23 -66 34 -77 l22
-22 10 75 c10 76 25 78 25 3 0 -19 12 -68 26 -110 14 -41 24 -76 22 -78 -2 -3
-27 3 -55 12 -51 16 -53 16 -135 -10 -46 -15 -87 -27 -91 -27 -3 0 -4 27 -1
60 l5 61 -28 -7 c-15 -4 -31 -9 -34 -13 -3 -3 -30 -75 -59 -158 -29 -84 -56
-153 -61 -153 -12 0 -202 81 -213 91 -5 4 -1 81 9 176 17 163 18 170 57 237
41 72 40 94 -4 83 -50 -13 -98 -125 -98 -228 0 -65 -11 -81 -29 -41 -7 15 -24
46 -37 70 -23 38 -27 41 -47 31 -12 -7 -24 -13 -26 -15 -2 -1 6 -15 16 -31 36
-52 76 -133 69 -140 -4 -4 -48 34 -98 84 -87 87 -91 93 -96 142 l-5 51 -41 -6
c-22 -4 -42 -7 -42 -8 -1 -1 15 -37 35 -81 33 -70 46 -87 109 -138 40 -32 70
-61 68 -65 -3 -4 -55 -30 -117 -57 -110 -49 -113 -51 -136 -100 -12 -27 -23
-58 -23 -67 0 -28 -18 -30 -35 -4 -16 24 -15 27 36 101 48 69 59 78 130 113
43 20 78 40 78 43 1 4 -19 12 -43 19 -33 9 -55 25 -89 64 -74 86 -124 164
-153 236 l-26 68 -66 -19 c-35 -10 -66 -20 -67 -21 -2 -3 -122 -344 -127 -363
-2 -5 10 -54 26 -108 l30 -97 100 -105 c56 -58 108 -105 117 -105 11 0 20 20
31 73 l16 72 1 -93 c1 -81 4 -96 21 -110 11 -10 23 -34 27 -54 5 -34 -2 -49
-71 -160 -43 -68 -88 -136 -101 -152 l-23 -28 -90 81 -90 81 -107 25 c-59 14
-116 25 -128 25 -12 0 -61 -13 -108 -28 -89 -29 -97 -34 -227 -153 l-64 -58
-72 -230 -73 -229 8 -184 c8 -177 10 -189 62 -379 l52 -197 120 -171 120 -172
130 -83 c129 -81 133 -83 230 -98 l100 -16 142 65 143 66 45 73 c41 66 106
134 128 134 4 0 76 -43 160 -96 84 -53 157 -97 162 -97 6 0 36 7 68 17 l57 17
0 59 c0 33 7 77 15 97 8 21 21 77 30 125 l16 87 -51 100 c-27 55 -50 107 -50
114 0 8 107 122 238 255 211 214 293 285 309 268 11 -11 -41 -78 -107 -138
l-69 -63 -89 -255 -89 -255 27 -245 27 -245 58 -155 c63 -167 98 -224 228
-372 149 -170 253 -223 474 -244 l72 -7 121 69 121 69 67 107 c37 60 75 120
84 136 10 15 30 107 49 214 l31 186 -31 237 -32 237 -104 207 -103 206 -114
112 -113 112 -153 57 -152 57 -34 71 c-43 89 -61 150 -91 301 l-24 120 22 17
c29 23 43 22 61 -4 l16 -22 74 37 c41 20 88 40 104 43 27 6 33 2 55 -33 33
-52 167 -320 167 -333 0 -7 -6 -8 -19 0 -37 19 -53 13 -49 -22 3 -30 8 -34
111 -77 l108 -44 57 18 c31 9 67 21 78 26 l22 8 -25 138 -24 138 -99 100 c-54
55 -101 111 -105 125 -24 91 -62 197 -95 270 -50 108 -78 229 -83 353 -2 67
-8 102 -18 112 -12 12 -14 9 -11 -30 l4 -44 -86 -43 -86 -42 -40 39 c-22 21
-40 44 -39 50 0 5 23 27 50 48 46 35 53 38 81 28 17 -6 34 -9 37 -5 3 3 15 31
27 62 22 61 23 62 149 120 55 25 61 31 74 73 13 45 12 50 -23 155 -34 101 -41
114 -104 180 -64 69 -71 73 -170 108 -57 20 -109 36 -115 35 -7 0 -44 -16 -83
-36z m269 -178 c37 -67 67 -125 67 -130 0 -10 -31 -45 -40 -45 -3 0 -17 35
-31 77 -20 65 -34 88 -84 143 -33 36 -71 77 -84 92 l-24 27 65 -21 64 -21 67
-122z m-210 58 c24 -27 107 -157 103 -161 -2 -2 -22 2 -44 9 -36 10 -44 19
-66 69 -37 82 -33 127 7 83z m-113 -218 c0 -8 -7 -15 -15 -15 -8 0 -15 7 -15
15 0 8 7 15 15 15 8 0 15 -7 15 -15z m127 -521 c23 -43 56 -117 74 -164 31
-86 99 -337 99 -369 0 -14 -16 -19 -99 -29 l-100 -12 -69 40 c-38 22 -72 40
-76 40 -3 0 -6 -19 -6 -42 0 -24 -3 -52 -6 -63 -5 -19 -100 -85 -123 -85 -5 0
-53 23 -105 50 -52 28 -98 50 -101 50 -11 0 -4 -51 11 -84 15 -31 27 -38 122
-72 l104 -37 35 -74 c37 -78 55 -163 34 -163 -42 0 -160 112 -244 231 -55 78
-137 223 -137 243 0 7 27 70 61 140 l61 126 -26 45 c-15 25 -29 45 -32 45 -3
0 -14 -19 -24 -42 l-20 -43 0 74 c0 67 3 80 39 145 22 39 47 85 55 101 14 27
26 33 132 60 l117 31 91 -31 91 -32 42 -79z m-878 94 c11 -30 10 -30 -29 -17
-31 11 -32 13 -15 26 26 18 34 17 44 -9z m-9 -294 l-40 -229 17 -72 c16 -72
17 -73 145 -210 128 -136 276 -306 306 -351 14 -21 13 -25 -12 -50 -14 -16
-26 -31 -26 -34 0 -3 19 -13 43 -22 24 -9 56 -30 72 -46 25 -27 27 -32 16 -53
-7 -13 -97 -108 -201 -212 -170 -169 -190 -187 -214 -181 -36 9 -32 18 17 41
l41 20 98 279 97 279 -22 27 c-12 15 -93 106 -179 202 -149 166 -158 179 -194
267 l-37 93 12 82 c29 191 83 417 97 403 2 -2 -14 -107 -36 -233z m308 -116
c-6 -18 -28 -21 -28 -4 0 9 7 16 16 16 9 0 14 -5 12 -12z m-50 -128 c-31 -42
-33 -25 -6 46 l23 59 3 -37 c2 -27 -3 -46 -20 -68z m-558 -102 c-17 -40 -52
-113 -78 -163 -42 -81 -50 -90 -72 -87 -14 2 -27 6 -30 8 -5 6 61 141 107 216
38 64 95 126 101 110 2 -6 -11 -44 -28 -84z m150 63 c0 -4 -6 -16 -14 -27 -17
-22 -31 -13 -41 28 -7 27 -7 27 24 17 17 -6 31 -14 31 -18z m-635 -135 c71
-34 215 -134 215 -150 0 -17 -270 -470 -392 -655 -26 -41 -48 -75 -48 -76 0
-1 49 -19 109 -39 l110 -38 -6 -71 c-4 -63 -10 -80 -44 -131 -22 -32 -38 -65
-35 -72 7 -17 98 -63 339 -170 105 -47 195 -89 199 -93 14 -13 -73 -130 -144
-195 -77 -70 -81 -72 -228 -82 l-96 -6 -84 42 c-98 49 -175 118 -294 265 -80
99 -81 101 -144 280 l-64 180 -13 204 -14 203 49 162 c26 88 55 186 64 218 15
51 24 64 104 134 l87 77 110 27 c61 15 119 26 130 23 11 -3 52 -19 90 -37z
m533 -65 c11 -64 11 -65 -28 -155 -57 -128 -52 -125 -89 -68 l-32 50 63 126
c34 69 65 122 69 118 3 -4 11 -36 17 -71z m1688 -77 c58 -58 88 -144 50 -144
-6 0 -35 16 -64 35 -51 35 -52 37 -52 84 0 73 12 78 66 25z m-1363 -109 c20
-29 37 -59 37 -64 0 -6 -35 -77 -77 -159 -60 -113 -79 -159 -83 -200 -3 -29
-9 -53 -15 -53 -5 0 -27 41 -48 93 -38 90 -38 95 -29 160 9 59 18 78 73 155
71 100 90 123 98 123 3 -1 23 -25 44 -55z m-571 18 c10 -9 18 -23 18 -32 0 -9
-41 -107 -92 -219 l-92 -203 -63 -50 c-34 -27 -65 -59 -67 -72 -3 -12 -8 -40
-11 -62 -4 -22 -9 -43 -12 -48 -2 -4 -22 17 -44 48 l-39 57 74 121 c172 285
295 477 304 477 3 0 14 -7 24 -17z m118 -193 c0 -9 -4 -20 -8 -25 -5 -6 -27
-45 -50 -87 l-42 -76 86 -107 c77 -95 85 -109 79 -136 -5 -23 -11 -29 -23 -26
-100 31 -322 114 -322 121 0 9 167 334 206 403 l19 32 27 -42 c15 -23 28 -49
28 -57z m1250 -139 c0 -38 -36 -55 -59 -27 -10 11 -8 17 6 25 22 13 53 14 53
2z m80 -311 c55 -241 102 -410 141 -507 18 -44 34 -105 36 -140 5 -52 9 -62
27 -67 39 -10 40 11 3 111 -19 55 -49 151 -65 214 -40 150 -135 579 -129 585
2 2 36 1 75 -2 67 -6 76 -10 162 -72 90 -64 125 -101 251 -269 50 -65 60 -90
126 -290 l71 -218 6 -171 6 -171 -65 -194 -65 -193 -90 -91 -91 -91 -107 -17
c-59 -10 -120 -17 -136 -17 -16 0 -68 19 -115 41 -102 50 -205 147 -318 300
-59 80 -77 114 -102 193 -39 122 -76 304 -95 474 l-15 132 60 208 c63 217 76
244 161 336 32 35 50 48 57 41 16 -16 37 -132 71 -390 32 -251 31 -248 118
-445 l25 -55 12 35 c12 34 11 39 -41 135 l-53 101 -30 329 c-17 181 -29 330
-28 331 1 1 20 11 42 22 28 14 42 17 46 9 3 -7 25 -95 49 -197z m-1478 34 c94
-34 245 -122 307 -180 3 -3 -17 -62 -25 -72 -6 -8 -158 76 -264 145 -63 41
-116 77 -118 78 -6 5 11 55 18 55 5 0 42 -12 82 -26z m83 -205 c184 -124 194
-143 38 -69 -109 51 -218 116 -243 143 -20 20 -20 22 -4 34 10 7 21 13 24 13
3 0 87 -55 185 -121z m340 -10 c6 -33 3 -47 -19 -80 -24 -36 -60 -55 -51 -26
33 108 48 147 55 147 5 0 11 -18 15 -41z m-386 -75 c113 -58 212 -111 220
-119 14 -14 7 -59 -30 -181 l-10 -32 -231 107 c-216 100 -232 110 -250 145
l-19 37 46 75 c26 41 51 74 57 74 6 0 104 -48 217 -106z m528 60 c27 -12 32
-18 24 -32 -17 -31 -106 -101 -116 -91 -2 3 1 37 7 77 13 80 9 77 85 46z m173
-177 c17 -32 29 -61 26 -64 -9 -9 -121 -5 -150 6 -24 10 -27 15 -22 39 4 15
25 44 47 66 47 45 49 44 99 -47z m-353 -9 c-20 -111 -19 -154 3 -206 12 -28
20 -55 19 -60 -2 -6 -27 -1 -56 10 -51 19 -53 21 -53 56 0 43 14 132 30 191 9
35 15 41 36 41 24 0 26 -3 21 -32z m343 -113 c28 -10 34 -17 32 -35 -3 -31
-39 -110 -49 -110 -14 0 -52 85 -59 131 -8 46 -13 45 76 14z"/>
<path d="M7418 10426 c-76 -14 -79 -15 -167 -95 l-90 -80 18 -23 c16 -19 22
-21 43 -11 14 6 43 34 64 61 41 53 47 55 244 98 14 3 83 9 153 13 113 7 162
19 146 36 -14 13 -338 14 -411 1z"/>
<path d="M5445 7694 c74 -41 247 -116 385 -169 123 -47 139 -48 140 -9 0 9
-454 170 -565 202 -5 1 13 -9 40 -24z"/>
<path d="M5747 7668 c-4 -12 -5 -23 -4 -24 25 -16 529 -215 534 -210 5 5 -495
256 -511 256 -8 0 -16 -10 -19 -22z"/>
<path d="M7820 6848 c73 -44 416 -185 426 -175 2 2 -81 47 -185 100 -154 79
-197 97 -232 97 l-44 0 35 -22z"/>
<path d="M6820 5840 l0 -440 50 0 50 0 0 440 0 440 -50 0 -50 0 0 -440z"/>
<path d="M5260 6217 c-199 -46 -321 -223 -307 -445 12 -196 145 -342 339 -373
85 -14 164 -3 238 32 50 24 61 33 55 47 -4 9 -12 29 -17 45 -5 15 -13 27 -18
27 -4 0 -33 -12 -65 -26 -51 -23 -66 -26 -139 -22 -69 4 -92 9 -137 35 -102
57 -156 164 -147 292 7 88 38 156 99 213 90 84 204 102 317 48 35 -17 65 -30
67 -30 2 0 10 21 19 47 19 56 14 65 -60 93 -70 26 -174 33 -244 17z"/>
<path d="M7980 6217 c-199 -46 -321 -223 -307 -445 12 -196 145 -342 339 -373
85 -14 164 -3 238 32 50 24 61 33 55 47 -4 9 -12 29 -17 45 -5 15 -13 27 -18
27 -4 0 -33 -12 -65 -26 -51 -23 -66 -26 -139 -22 -69 4 -92 9 -137 35 -102
57 -156 164 -147 292 7 88 38 156 99 213 90 84 204 102 317 48 35 -17 65 -30
67 -30 2 0 10 21 19 47 19 56 14 65 -60 93 -70 26 -174 33 -244 17z"/>
<path d="M9532 6084 c-31 -21 -30 -69 3 -90 29 -19 60 -11 81 21 18 27 7 57
-26 75 -25 13 -32 13 -58 -6z"/>
<path d="M7257 5876 c-60 -16 -113 -59 -152 -120 -25 -41 -29 -58 -29 -115 1
-194 185 -303 372 -221 46 20 46 25 10 74 -14 18 -16 18 -48 1 -45 -23 -122
-21 -164 5 -29 18 -52 47 -44 55 2 2 75 28 163 58 203 70 195 67 195 83 0 25
-40 97 -73 132 -32 33 -107 63 -156 61 -14 0 -48 -6 -74 -13z m159 -112 c19
-19 34 -39 34 -43 0 -9 -243 -101 -267 -101 -13 0 -14 8 -9 41 15 94 65 139
155 139 49 0 57 -3 87 -36z"/>
<path d="M8718 5880 c-47 -14 -98 -50 -123 -88 l-25 -37 0 35 c0 69 -8 80 -56
80 l-44 0 0 -235 0 -235 49 0 49 0 4 133 c4 135 10 160 52 205 23 25 77 52
106 52 19 0 30 27 30 73 0 29 -1 29 -42 17z"/>
<path d="M10396 5874 c-71 -22 -140 -95 -162 -169 -13 -48 -14 -67 -5 -114 33
-166 200 -244 369 -170 46 19 46 24 10 73 -14 17 -16 17 -46 2 -39 -20 -124
-21 -162 -1 -26 13 -57 52 -48 59 2 2 78 29 170 61 92 33 173 62 180 66 17 11
-7 79 -44 124 -60 72 -166 100 -262 69z m177 -116 c15 -18 27 -35 27 -39 0 -8
-246 -99 -267 -99 -13 0 -14 8 -9 41 13 80 50 124 119 138 50 11 99 -4 130
-41z"/>
<path d="M6440 5864 c-63 -22 -105 -57 -137 -112 -23 -39 -27 -57 -27 -117 1
-50 7 -81 22 -111 61 -120 218 -166 349 -103 l43 21 -27 33 c-25 31 -28 32
-49 18 -13 -8 -46 -14 -80 -14 -48 0 -62 4 -93 29 -46 37 -65 76 -64 133 2
118 112 184 223 134 l39 -18 25 29 c14 16 26 32 26 35 0 3 -20 15 -44 27 -59
30 -148 37 -206 16z"/>
<path d="M9877 5866 c-50 -19 -74 -41 -88 -83 -27 -81 20 -144 135 -183 37
-12 71 -30 76 -40 41 -77 -62 -120 -156 -66 l-42 24 -21 -29 -21 -28 27 -21
c40 -31 126 -53 182 -45 89 12 141 66 141 149 0 41 -5 53 -32 80 -21 21 -58
41 -100 55 -36 12 -71 27 -76 34 -57 71 40 130 127 76 18 -11 34 -19 35 -17
20 27 36 54 36 59 0 12 -79 39 -132 44 -34 3 -67 0 -91 -9z"/>
<path d="M5690 5863 c0 -3 48 -105 106 -227 l105 -220 -51 -111 c-27 -60 -50
-114 -50 -118 0 -4 21 -7 47 -5 l48 3 83 190 c81 184 199 457 209 483 4 8 -8
12 -40 12 l-45 0 -72 -165 c-40 -91 -76 -165 -79 -165 -3 0 -39 74 -80 165
l-73 165 -54 0 c-30 0 -54 -3 -54 -7z"/>
<path d="M8892 5678 c3 -181 4 -195 25 -224 31 -43 94 -67 154 -59 52 7 126
49 135 77 10 34 24 18 24 -27 l0 -45 45 0 45 0 0 235 0 235 -50 0 -50 0 0
-135 c0 -152 -9 -185 -60 -228 -28 -24 -40 -28 -84 -25 -47 3 -52 6 -68 38
-15 29 -18 63 -18 193 l0 157 -51 0 -51 0 4 -192z"/>
<path d="M9510 5635 l0 -235 50 0 50 0 0 235 0 235 -50 0 -50 0 0 -235z"/>
</g>
</svg>
